<svg width="85" height="85" fill="none" xmlns="http://www.w3.org/2000/svg"><path fill-rule="evenodd" clip-rule="evenodd" d="M1.988 1.982h53.357v1H2.488v19.262h-1V1.982h.5zm-.5 79.548v2.476h82.024V30.149h-1v52.857H2.488V81.53h-1zm0-4.94h1V27.184h-1v49.404zM83.512 2.481v22.726h-1V2.982H60.286v-1h23.226v.5z" fill="#fff"/><path opacity=".9" fill-rule="evenodd" clip-rule="evenodd" d="M.488 76.59h3V27.184h-3v49.404zM84.512 2.481v22.726h-3V3.982H60.286v-3h24.226v1.5z" fill="#fff"/><path d="M26 42h32m0 0l-10 9.5M58 42l-10-9.5" stroke="#fff" stroke-width="1.5"/></svg>