<svg width="1" height="87" fill="none" xmlns="http://www.w3.org/2000/svg"><path d="M0-3.01a.5.5 0 101 0H0zm1 5.937a.5.5 0 00-1 0h1zm-1 1.98a.5.5 0 001 0H0zm1 5.937a.5.5 0 00-1 0h1zm-1 1.979a.5.5 0 101 0H0zm1 5.937a.5.5 0 00-1 0h1zm-1 1.98a.5.5 0 001 0H0zm1 5.937a.5.5 0 10-1 0h1zm-1 1.98a.5.5 0 001 0H0zm1 5.937a.5.5 0 00-1 0h1zm-1 1.979a.5.5 0 101 0H0zm1 5.937a.5.5 0 00-1 0h1zm-1 1.98a.5.5 0 001 0H0zm1 5.937a.5.5 0 10-1 0h1zm-1 1.98a.5.5 0 001 0H0zm1 5.937a.5.5 0 10-1 0h1zm-1 1.979a.5.5 0 101 0H0zm1 5.937a.5.5 0 00-1 0h1zm-1 1.98a.5.5 0 001 0H0zm1 5.937a.5.5 0 10-1 0h1zm-1 1.98a.5.5 0 001 0H0zm1 5.937a.5.5 0 00-1 0h1zm-1 1.979a.5.5 0 101 0H0zm1 5.937a.5.5 0 00-1 0h1zM0-4v.99h1V-4H0zm0 6.927v1.98h1v-1.98H0zm0 7.917v1.979h1v-1.98H0zm0 7.916v1.98h1v-1.98H0zm0 7.917v1.98h1v-1.98H0zm0 7.917v1.979h1v-1.98H0zm0 7.916v1.98h1v-1.98H0zm0 7.917v1.98h1v-1.98H0zm0 7.917v1.979h1v-1.98H0zm0 7.916v1.98h1v-1.98H0zm0 7.917v1.98h1v-1.98H0zm0 7.917v1.979h1v-1.98H0zm0 7.916V91h1v-.99H0z" fill="#CB24FF"/></svg>