<svg width="92" height="103" fill="none" xmlns="http://www.w3.org/2000/svg"><path fill-rule="evenodd" clip-rule="evenodd" d="M46.477 0l.238.13 44 23.982.261.142v27.315h-1V24.848l-43.5-23.71-41 22.2v-1.136L46.238.129 46.477 0zM1.976 25.57v51h1v-51h-1zm44.266 76.441L5.476 80.416v-1.131l41 21.718 21-11.124v1.132l-20.766 11-.234.124-.234-.124zm26.234-13.649l18.234-9.659.266-.14V56.568h-1V77.96l-17.5 9.27v1.132z" fill="#fff"/><path fill-rule="evenodd" clip-rule="evenodd" d="M.976 76.57v-50h3v50h-3zm71.5 12.924l18.702-9.907.798-.423V56.57h-3v20.79l-16.5 8.74v3.395z" fill="#fff"/><path d="M33.855 61.436l21.488-21.488m0 0l-.336 13.095m.336-13.095l-13.094.336" stroke="#fff" stroke-width="1.5"/></svg>