<svg width="127" height="141" fill="none" xmlns="http://www.w3.org/2000/svg"><g opacity=".6" filter="url(#filter0_f_319_10808)"><path d="M63.524 19.57l44 23.98v53.711l-44 23.308-44-23.308V43.395l44-23.826z" stroke="#CB24FF" stroke-width="8"/></g><g filter="url(#filter1_f_319_10808)"><path d="M63.524 19.57l44 23.98v53.711l-44 23.308-44-23.308V43.395l44-23.826z" stroke="#CB24FF" stroke-width="4"/></g><g opacity=".9" filter="url(#filter2_f_319_10808)"><path fill-rule="evenodd" clip-rule="evenodd" d="M63.524 19l.239.13 44 23.982.261.142v27.315h-1V43.848l-43.501-23.71-41 22.2v-1.136l40.763-22.073.238-.129zm-44.5 25.57v51h1v-51h-1zm44.265 76.441L22.524 99.416v-1.131l41 21.718 21-11.124v1.132l-20.766 11-.234.124-.235-.124zm26.235-13.649l18.234-9.659.266-.14V75.568h-1V96.96l-17.5 9.27v1.132z" fill="#fff"/></g><g opacity=".9" filter="url(#filter3_f_319_10808)"><path fill-rule="evenodd" clip-rule="evenodd" d="M18.024 95.57v-50h3v50h-3zm71.5 12.924l18.702-9.907.798-.423V75.57h-3v20.79l-16.5 8.74v3.395z" fill="#fff"/></g><g filter="url(#filter4_f_319_10808)"><path d="M50.903 80.436L72.39 58.948m0 0l-.336 13.095m.336-13.095l-13.094.336" stroke="#CB24FF" stroke-width="4"/></g><g filter="url(#filter5_f_319_10808)"><path d="M50.903 80.436L72.39 58.948m0 0l-.336 13.095m.336-13.095l-13.094.336" stroke="#CB24FF" stroke-width="3"/></g><path opacity=".6" d="M50.903 80.436L72.39 58.948m0 0l-.336 13.095m.336-13.095l-13.094.336" stroke="#fff" stroke-width="1.5"/><defs><filter id="filter0_f_319_10808" x=".524" y=".017" width="126" height="140.079" filterUnits="userSpaceOnUse" color-interpolation-filters="sRGB"><feFlood flood-opacity="0" result="BackgroundImageFix"/><feBlend in="SourceGraphic" in2="BackgroundImageFix" result="shape"/><feGaussianBlur stdDeviation="7.5" result="effect1_foregroundBlur_319_10808"/></filter><filter id="filter1_f_319_10808" x="11.524" y="11.293" width="104" height="117.539" filterUnits="userSpaceOnUse" color-interpolation-filters="sRGB"><feFlood flood-opacity="0" result="BackgroundImageFix"/><feBlend in="SourceGraphic" in2="BackgroundImageFix" result="shape"/><feGaussianBlur stdDeviation="3" result="effect1_foregroundBlur_319_10808"/></filter><filter id="filter2_f_319_10808" x="18.024" y="18" width="91" height="104.135" filterUnits="userSpaceOnUse" color-interpolation-filters="sRGB"><feFlood flood-opacity="0" result="BackgroundImageFix"/><feBlend in="SourceGraphic" in2="BackgroundImageFix" result="shape"/><feGaussianBlur stdDeviation=".5" result="effect1_foregroundBlur_319_10808"/></filter><filter id="filter3_f_319_10808" x="16.024" y="43.569" width="95" height="66.925" filterUnits="userSpaceOnUse" color-interpolation-filters="sRGB"><feFlood flood-opacity="0" result="BackgroundImageFix"/><feBlend in="SourceGraphic" in2="BackgroundImageFix" result="shape"/><feGaussianBlur stdDeviation="1" result="effect1_foregroundBlur_319_10808"/></filter><filter id="filter4_f_319_10808" x="34.489" y="41.895" width="54.956" height="54.956" filterUnits="userSpaceOnUse" color-interpolation-filters="sRGB"><feFlood flood-opacity="0" result="BackgroundImageFix"/><feBlend in="SourceGraphic" in2="BackgroundImageFix" result="shape"/><feGaussianBlur stdDeviation="7.5" result="effect1_foregroundBlur_319_10808"/></filter><filter id="filter5_f_319_10808" x="44.842" y="52.408" width="34.089" height="34.089" filterUnits="userSpaceOnUse" color-interpolation-filters="sRGB"><feFlood flood-opacity="0" result="BackgroundImageFix"/><feBlend in="SourceGraphic" in2="BackgroundImageFix" result="shape"/><feGaussianBlur stdDeviation="2.5" result="effect1_foregroundBlur_319_10808"/></filter></defs></svg>