<svg width="542" height="541" fill="none" xmlns="http://www.w3.org/2000/svg"><g filter="url(#filter0_d_347_4077)"><path d="M271.37 340.631c39.008 0 70.63-31.457 70.63-70.262s-31.622-70.263-70.63-70.263c-39.007 0-70.629 31.458-70.629 70.263 0 38.805 31.622 70.262 70.629 70.262z" fill="url(#paint0_radial_347_4077)"/></g><path d="M271 340.631c39.212 0 71-31.623 71-70.631 0-39.009-31.788-70.631-71-70.631S200 230.991 200 270c0 39.008 31.788 70.631 71 70.631z" fill="#C1272D"/><path d="M271 340.631c39.212 0 71-31.623 71-70.631 0-39.009-31.788-70.631-71-70.631S200 230.991 200 270c0 39.008 31.788 70.631 71 70.631z" fill="url(#paint1_radial_347_4077)"/><path d="M225.456 312.559c1.93.192 3.28 1.921 4.631 3.266 1.351 1.345 3.666 2.498 5.21 1.153-1.351-2.114-.193-4.996 1.93-6.341 2.122-1.345 4.824-1.153 7.332-.768 2.509.384 4.824 1.152 7.333 1.152-3.088 1.73-3.667 6.533-.965 8.839 1.351 1.153 2.894 1.537 4.631 1.729 5.789.769 11.578-.576 17.366-1.152 3.088-.193 6.561-.385 9.263-1.73 2.894-1.537 4.824-4.996 3.666-7.878-7.912-.192-15.63-.192-23.541-.384.771-.192 1.35-.384 2.122-.192 3.28-2.69 3.28-7.878 1.351-11.721-1.737-3.843-5.017-6.725-8.104-9.607-1.351-1.345-2.702-3.267-1.737-4.996 4.245 2.113 8.683 4.227 12.928 6.341 3.281-4.035 2.895-10.761 7.333-13.259 3.473-1.921 7.911 0 10.034 3.267 2.122 3.266 2.508 7.302 2.701 11.144 3.473 1.538 7.333 2.883 11.192 3.651 1.351.192 2.894.385 4.052-.384 2.123-1.537 1.351-4.804 1.93-7.302.772-2.882 3.666-4.611 6.367-5.572 2.702-.961 5.789-1.537 8.105-3.074 4.631-3.267 5.596-9.608 7.525-14.988.965-2.882 2.316-5.572 2.895-8.454.579-2.882.193-6.149-1.93-8.262-2.123-2.114-6.175-2.306-7.911 0 1.929 1.729 2.315 4.995.771 7.109-4.824.384-9.648-.192-13.893-2.114-.579-.192-1.157-.576-1.157-1.152 0-.385.193-.577.193-.769 2.701-5.188 6.174-11.337 3.087-16.14-1.544-2.498-4.245-3.843-6.754-5.188-.772-.385-1.736-.769-2.701-.385-.772.385-1.158 1.73-2.123 1.922-.579.192-1.158-.192-1.736-.577-2.123-1.345-4.246-2.882-5.596-4.803-1.351-1.922-2.123-4.804-.965-6.917.386-.577.772-1.153.772-1.922 0-.769-.579-1.153-1.158-1.537-2.894-2.114-6.368-3.074-9.841-3.267.965-2.113.579-4.611-.579-6.533-.965-1.729-2.894-3.65-1.544-5.188l.193-.192c-2.122-.192-4.438-.384-6.56-.384-19.682 0-37.435 8.07-50.363 20.944 1.158.576 2.315 1.153 3.28 1.921a7.021 7.021 0 003.088-5.188c.193-.96 0-1.921.771-2.69.386-.384.965-.576 1.544-.768 5.982-1.537 12.736 2.69 13.893 8.646.386 2.306.193 4.996 1.737 6.726l1.158-.961c.772-.577 1.736-1.345 2.508-1.922 1.544.961 2.895 2.306 3.666 4.035-2.508.961-5.017 2.114-7.525 3.075 2.701 2.498 7.718 2.306 9.648-.961.386-.576.772-1.345 1.351-1.537.579-.192.965 0 1.543.192 2.123.961 4.053 2.114 5.596 3.843-2.894.961-6.367 2.69-6.174 5.764 0 1.345.771 2.498.771 3.843 0 .961-.386 1.922-.193 2.882.193 1.538 1.544 2.498 2.509 3.651.965 1.153 1.158 3.267-.386 3.843.579-.768-.386-1.921-1.351-2.113-3.28-.769-6.753 2.113-6.56 5.38-1.158-.385-1.93-1.922-1.351-3.075-1.351-.576-2.702-1.153-4.052-1.921-1.158.576-.386 2.498-.772 3.843-.579 1.729-2.895 1.921-4.631 1.345-1.737-.769-2.895-2.114-4.824-2.498 3.28-.769 4.824-4.996 3.859-8.262-.386-.769-.772-1.73-1.544-2.114-1.736-1.345-4.052-.769-6.174-.192.771 2.69.771 5.764 0 8.454-1.351-1.153-2.509-2.305-3.86-3.458-.579 2.305-.386 4.611.386 6.725-2.701.384-5.403 1.153-8.104 1.921 0 2.306 0 4.612-.193 6.918-1.93.192-3.666-1.538-4.245-3.459-.579-1.922-.386-4.035-.772-5.957-.386-1.921-1.544-4.035-3.473-4.419-.772 3.459-5.596 5.188-8.877 3.459-.385-.193-.771-.385-1.157-.769-1.351 5.572-1.93 10.568-1.93 15.756 0 18.83 7.333 35.931 19.489 48.613.193-.768.386-1.537.772-2.306.965-1.921 2.701-3.843 4.824-3.65z" fill="url(#paint2_linear_347_4077)"/><path d="M286.808 201.277c-.193.193-.193.193-.386.193 0-.193 0-.193-.193-.385-2.702-.577-5.597-.962-8.298-1.347l-.193.192c-1.351 1.54.579 3.657 1.543 5.197 1.158 1.924 1.351 4.426.579 6.543 3.474 0 6.948 1.155 9.842 3.272.579.385 1.158.962 1.158 1.539 0 .77-.386 1.348-.772 1.925-1.157 2.117-.579 5.004.965 6.928 1.351 1.925 3.474 3.465 5.597 4.812.579.385 1.158.77 1.737.577.964-.192 1.35-1.347 2.122-1.924.772-.385 1.737 0 2.702.384 2.509 1.348 5.404 2.695 6.754 5.197 3.088 5.004-.579 11.162-3.087 16.166-.193.193-.193.577-.193.77 0 .577.579.962 1.158 1.155 4.438 1.732 9.263 2.502 13.894 2.117 1.544-2.117 1.158-5.389-.772-7.121 1.737-2.502 5.79-2.117 7.913 0 2.122 2.117 2.508 5.389 1.929 8.275-.579 2.887-1.929 5.582-2.894 8.468-1.93 5.389-2.702 11.74-7.527 15.012-2.315 1.732-5.403 2.117-8.105 3.079-2.702.962-5.596 2.695-6.368 5.581-.772 2.502.193 5.774-1.93 7.314-1.158.77-2.702.577-4.053.385-3.859-.77-7.526-1.925-11.192-3.657 0-3.849-.579-7.891-2.702-11.162-2.123-3.272-6.755-5.197-10.035-3.272-4.439 2.502-4.053 9.238-7.333 13.279-4.246-2.117-8.685-4.234-12.93-6.351-.965 1.732.386 3.657 1.737 5.004 2.894 3.079 6.175 5.774 8.105 9.623 1.93 3.849 1.737 8.853-1.351 11.74-.772-.193-1.351 0-2.123.192 7.912.193 15.825.193 23.544.385 1.351 2.887-.772 6.351-3.667 7.891-2.894 1.539-6.175 1.539-9.263 1.732-5.789.577-11.579 1.924-17.368 1.154-1.737-.192-3.281-.577-4.632-1.732-2.701-2.309-2.122-7.313.965-8.853-2.509 0-4.824-.769-7.333-1.154-2.509-.385-5.018-.578-7.333.77-2.123 1.347-3.281 4.234-1.93 6.351-1.544 1.347-3.667.192-5.211-1.155-1.35-1.347-2.701-3.079-4.631-3.272-2.123-.192-3.86 1.732-4.825 3.657-.386.77-.579 1.539-.772 2.309 3.86 4.234 8.492 7.891 13.316 10.97 7.14 4.619 15.246 7.891 23.93 9.623 4.438.962 9.263 1.347 13.894 1.347 39.561-.385 71.21-31.947 71.21-71.016 0-33.68-23.736-61.778-55.192-68.707z" fill="url(#paint3_linear_347_4077)"/><path d="M212.098 252.179c1.936.386 3.097 2.509 3.484 4.44.388 1.93.194 4.053.775 5.984.581 1.93 2.323 3.861 4.259 3.474 0-2.316 0-4.632.193-6.949 2.711-.965 5.421-1.544 8.131-1.93-.774-2.124-.968-4.633-.387-6.756 1.355 1.158 2.517 2.316 3.872 3.474.581-2.895.581-5.791 0-8.493 2.129-.579 4.452-1.159 6.195.193.774.579 1.161 1.351 1.549 2.123 1.161 3.282-.388 7.528-3.872 8.301 1.742.579 3.097 1.737 4.84 2.509 1.742.772 4.065.386 4.646-1.351.387-1.351-.387-3.089.774-3.861 1.355.579 2.71 1.158 4.065 1.93-.387 1.159.194 2.703 1.356 3.089 0-3.282 3.484-6.177 6.582-5.405.968.193 1.936 1.351 1.355 2.123 1.549-.386 1.161-2.509.387-3.86-.968-1.159-2.323-2.124-2.517-3.668-.193-.965.194-1.93.194-2.896 0-1.351-.774-2.509-.774-3.86-.194-3.089 3.291-4.826 6.195-5.791a19.324 19.324 0 00-5.615-3.861c-.58-.193-.968-.386-1.548-.193-.775.193-.968.965-1.355 1.544-1.936 3.089-6.97 3.475-9.68.965 2.517-.965 5.033-1.93 7.55-3.088-.774-1.544-2.13-3.089-3.678-4.054-.968.579-1.743 1.351-2.517 1.93l-1.161.966c-1.549-1.931-1.162-4.44-1.743-6.757-1.161-5.984-7.937-10.424-13.938-8.686-.581.193-1.162.386-1.549.772-.581.772-.581 1.737-.774 2.702a7.06 7.06 0 01-3.098 5.212c-.968-.772-2.129-1.351-3.291-1.93-9.292 9.266-15.875 21.234-18.778 34.553.387.193.774.58 1.161.773 3.098 1.544 7.744-.193 8.712-3.668z" fill="url(#paint4_linear_347_4077)"/><path d="M271 340.631c39.212 0 71-31.623 71-70.631 0-39.009-31.788-70.631-71-70.631S200 230.991 200 270c0 39.008 31.788 70.631 71 70.631z" fill="url(#paint5_radial_347_4077)"/><path d="M271 340.631c39.212 0 71-31.623 71-70.631 0-39.009-31.788-70.631-71-70.631S200 230.991 200 270c0 39.008 31.788 70.631 71 70.631z" fill="url(#paint6_radial_347_4077)"/><path d="M271 340.631c39.212 0 71-31.623 71-70.631 0-39.009-31.788-70.631-71-70.631S200 230.991 200 270c0 39.008 31.788 70.631 71 70.631z" fill="url(#paint7_radial_347_4077)"/><defs><radialGradient id="paint0_radial_347_4077" cx="0" cy="0" r="1" gradientUnits="userSpaceOnUse" gradientTransform="matrix(70.6813 0 0 70.3141 271.422 270.421)"><stop offset=".767" stop-color="#C1272D"/><stop offset=".773" stop-color="#B3242A"/><stop offset=".794" stop-color="#841B1F"/><stop offset=".815" stop-color="#5B1215"/><stop offset=".837" stop-color="#3A0C0E"/><stop offset=".859" stop-color="#210708"/><stop offset=".882" stop-color="#0E0303"/><stop offset=".906" stop-color="#040101"/><stop offset=".933"/></radialGradient><radialGradient id="paint1_radial_347_4077" cx="0" cy="0" r="1" gradientUnits="userSpaceOnUse" gradientTransform="matrix(123.574 0 0 122.932 243.335 239.592)"><stop stop-color="#D95E00"/><stop offset=".103" stop-color="#C04E00"/><stop offset=".304" stop-color="#953200"/><stop offset=".5" stop-color="#741C00"/><stop offset=".685" stop-color="#5C0D00"/><stop offset=".857" stop-color="#4D0300"/><stop offset="1" stop-color="#480000"/></radialGradient><radialGradient id="paint5_radial_347_4077" cx="0" cy="0" r="1" gradientUnits="userSpaceOnUse" gradientTransform="matrix(79.9261 0 0 79.5109 252.686 253.224)"><stop stop-color="#fff"/><stop offset=".092" stop-color="#F9F9F9"/><stop offset=".217" stop-color="#E7E7E7"/><stop offset=".363" stop-color="#CACACA"/><stop offset=".523" stop-color="#A2A2A2"/><stop offset=".696" stop-color="#6E6E6E"/><stop offset=".875" stop-color="#303030"/><stop offset="1"/></radialGradient><radialGradient id="paint6_radial_347_4077" cx="0" cy="0" r="1" gradientUnits="userSpaceOnUse" gradientTransform="matrix(123.574 0 0 122.932 243.335 239.592)"><stop stop-color="#D95E00"/><stop offset=".331" stop-color="#9E3800"/><stop offset=".635" stop-color="#701A00"/><stop offset=".867" stop-color="#530700"/><stop offset="1" stop-color="#480000"/></radialGradient><radialGradient id="paint7_radial_347_4077" cx="0" cy="0" r="1" gradientUnits="userSpaceOnUse" gradientTransform="matrix(83.2199 0 0 82.7876 267.76 269.663)"><stop offset=".768"/><stop offset="1" stop-color="#A44000"/></radialGradient><linearGradient id="paint2_linear_347_4077" x1="238.862" y1="265.669" x2="136.838" y2="283.961" gradientUnits="userSpaceOnUse"><stop stop-color="gray"/><stop offset=".195" stop-color="#6D6D6D"/><stop offset=".592" stop-color="#3A3A3A"/><stop offset="1"/></linearGradient><linearGradient id="paint3_linear_347_4077" x1="281.074" y1="294.557" x2="283.461" y2="336.495" gradientUnits="userSpaceOnUse"><stop stop-color="#AF2A0F"/><stop offset=".657" stop-color="#BA2821"/><stop offset="1" stop-color="#C1272D"/></linearGradient><linearGradient id="paint4_linear_347_4077" x1="243.803" y1="231.55" x2="220.665" y2="267.001" gradientUnits="userSpaceOnUse"><stop stop-color="#722A0F"/><stop offset=".657" stop-color="#60230D"/><stop offset="1" stop-color="#541F0B"/></linearGradient><filter id="filter0_d_347_4077" x=".741" y=".106" width="541.259" height="540.524" filterUnits="userSpaceOnUse" color-interpolation-filters="sRGB"><feFlood flood-opacity="0" result="BackgroundImageFix"/><feColorMatrix in="SourceAlpha" values="0 0 0 0 0 0 0 0 0 0 0 0 0 0 0 0 0 0 127 0" result="hardAlpha"/><feOffset/><feGaussianBlur stdDeviation="100"/><feComposite in2="hardAlpha" operator="out"/><feColorMatrix values="0 0 0 0 0.666667 0 0 0 0 0.0392157 0 0 0 0 0.00392157 0 0 0 1 0"/><feBlend in2="BackgroundImageFix" result="effect1_dropShadow_347_4077"/><feBlend in="SourceGraphic" in2="effect1_dropShadow_347_4077" result="shape"/></filter></defs></svg>