<svg width="130" height="130" fill="none" xmlns="http://www.w3.org/2000/svg"><g opacity=".6" filter="url(#filter0_f_319_10617)"><rect x="19.035" y="19.064" width="91" height="91" rx="45.5" stroke="#0342E7" stroke-width="8"/></g><g filter="url(#filter1_f_319_10617)"><rect x="19.035" y="19.064" width="91" height="91" rx="45.5" stroke="#0342E7" stroke-width="4"/></g><g opacity=".9" filter="url(#filter2_f_319_10617)"><path fill-rule="evenodd" clip-rule="evenodd" d="M65.011 19c5.04 0 9.892.81 14.43 2.308v1.055A44.956 44.956 0 0065.012 20C40.152 20 20 40.152 20 65.011a44.811 44.811 0 008.935 26.922v1.64A45.816 45.816 0 0119 65.01C19 39.6 39.6 19 65.011 19zM32.136 97.202c8.352 8.529 19.995 13.821 32.875 13.821 12.88 0 24.524-5.292 32.876-13.82h-.13v-1.31c-8.207 8.7-19.842 14.13-32.746 14.13-12.243 0-23.346-4.889-31.46-12.82h-1.415zm70.394-5.55a45.8 45.8 0 008.493-26.64c0-3.431-.376-6.775-1.088-9.991h-1.025a45.173 45.173 0 011.113 9.99c0 9.97-3.241 19.182-8.727 26.641h1.234zM84.992 23.553c10.8 5.215 19.253 14.526 23.34 25.918h-1.064c-3.987-10.838-12.024-19.717-22.276-24.804v-1.114z" fill="#fff"/></g><g opacity=".9" filter="url(#filter3_f_319_10617)"><path fill-rule="evenodd" clip-rule="evenodd" d="M20.629 49.472h3.193-3.193zm10.122 47.731c8.575 9.123 20.752 14.82 34.26 14.82s25.686-5.697 34.26-14.82h-4.248c-7.862 7.333-18.413 11.82-30.012 11.82S42.861 104.536 35 97.203h-4.248zm75.45-47.731h3.193c-4.114-11.75-12.763-21.37-23.847-26.761v3.364c9.44 4.989 16.846 13.31 20.654 23.397z" fill="#fff"/></g><g filter="url(#filter4_f_319_10617)"><path d="M53.749 74.754l21.488-21.488m0 0l-.336 13.095m.336-13.095l-13.094.336" stroke="#0342E7" stroke-width="4"/></g><g filter="url(#filter5_f_319_10617)"><path d="M53.749 74.754l21.488-21.488m0 0l-.336 13.095m.336-13.095l-13.094.336" stroke="#0342E7" stroke-width="3"/></g><path opacity=".6" d="M53.749 74.754l21.488-21.488m0 0l-.336 13.095m.336-13.095l-13.094.336" stroke="#fff" stroke-width="1.5"/><defs><filter id="filter0_f_319_10617" x=".035" y=".064" width="129" height="129" filterUnits="userSpaceOnUse" color-interpolation-filters="sRGB"><feFlood flood-opacity="0" result="BackgroundImageFix"/><feBlend in="SourceGraphic" in2="BackgroundImageFix" result="shape"/><feGaussianBlur stdDeviation="7.5" result="effect1_foregroundBlur_319_10617"/></filter><filter id="filter1_f_319_10617" x="11.035" y="11.064" width="107" height="107" filterUnits="userSpaceOnUse" color-interpolation-filters="sRGB"><feFlood flood-opacity="0" result="BackgroundImageFix"/><feBlend in="SourceGraphic" in2="BackgroundImageFix" result="shape"/><feGaussianBlur stdDeviation="3" result="effect1_foregroundBlur_319_10617"/></filter><filter id="filter2_f_319_10617" x="18" y="18" width="94.023" height="94.023" filterUnits="userSpaceOnUse" color-interpolation-filters="sRGB"><feFlood flood-opacity="0" result="BackgroundImageFix"/><feBlend in="SourceGraphic" in2="BackgroundImageFix" result="shape"/><feGaussianBlur stdDeviation=".5" result="effect1_foregroundBlur_319_10617"/></filter><filter id="filter3_f_319_10617" x="18.629" y="20.711" width="92.764" height="93.312" filterUnits="userSpaceOnUse" color-interpolation-filters="sRGB"><feFlood flood-opacity="0" result="BackgroundImageFix"/><feBlend in="SourceGraphic" in2="BackgroundImageFix" result="shape"/><feGaussianBlur stdDeviation="1" result="effect1_foregroundBlur_319_10617"/></filter><filter id="filter4_f_319_10617" x="37.335" y="36.213" width="54.956" height="54.956" filterUnits="userSpaceOnUse" color-interpolation-filters="sRGB"><feFlood flood-opacity="0" result="BackgroundImageFix"/><feBlend in="SourceGraphic" in2="BackgroundImageFix" result="shape"/><feGaussianBlur stdDeviation="7.5" result="effect1_foregroundBlur_319_10617"/></filter><filter id="filter5_f_319_10617" x="47.688" y="46.727" width="34.089" height="34.089" filterUnits="userSpaceOnUse" color-interpolation-filters="sRGB"><feFlood flood-opacity="0" result="BackgroundImageFix"/><feBlend in="SourceGraphic" in2="BackgroundImageFix" result="shape"/><feGaussianBlur stdDeviation="2.5" result="effect1_foregroundBlur_319_10617"/></filter></defs></svg>