<svg width="93" height="94" fill="none" xmlns="http://www.w3.org/2000/svg"><path fill-rule="evenodd" clip-rule="evenodd" d="M46.988 0c5.04 0 9.891.81 14.43 2.308v1.055A44.958 44.958 0 0046.988 1C22.128 1 1.976 21.152 1.976 46.011a44.811 44.811 0 008.936 26.922v1.64A45.816 45.816 0 01.976 46.01C.976 20.6 21.576 0 46.988 0zM14.112 78.202c8.352 8.529 19.996 13.82 32.876 13.82 12.88 0 24.523-5.291 32.875-13.82h-.13v-1.308c-8.207 8.7-19.842 14.129-32.745 14.129-12.244 0-23.346-4.889-31.461-12.82h-1.415zm70.394-5.55A45.801 45.801 0 0093 46.012c0-3.431-.376-6.775-1.088-9.991h-1.025A45.161 45.161 0 0192 46.01a44.81 44.81 0 01-8.727 26.641h1.234zM66.968 4.553C77.77 9.768 86.221 19.08 90.308 30.471h-1.064C85.257 19.633 77.22 10.754 66.968 5.667V4.553z" fill="#fff"/><path fill-rule="evenodd" clip-rule="evenodd" d="M2.605 30.472h3.193-3.193zm10.122 47.731c8.575 9.123 20.752 14.82 34.26 14.82 13.509 0 25.686-5.697 34.261-14.82h-4.249c-7.861 7.333-18.412 11.82-30.012 11.82-11.599 0-22.15-4.487-30.012-11.82h-4.248zm75.45-47.731h3.193C87.256 18.722 78.608 9.102 67.523 3.71v3.364c9.44 4.989 16.846 13.31 20.654 23.397z" fill="#fff"/><path d="M35.725 55.755l21.488-21.489m0 0l-.336 13.095m.336-13.094l-13.094.335" stroke="#fff" stroke-width="1.5"/></svg>