<svg width="115" height="114" fill="none" xmlns="http://www.w3.org/2000/svg"><path fill-rule="evenodd" clip-rule="evenodd" d="M57.325.808l36.063 36.063-.708.707L56.971 1.87 46.108 12.733l-.707-.708L56.617.808l.353-.353.354.353zM2.183 55.242L.999 56.428l-.354.354.354.353 55.62 55.62.353.353.354-.353 35.629-35.63-.707-.706-35.276 35.275L2.06 56.782l.832-.832-.708-.708zm3.392-3.391l.707.707 36.434-36.434-.707-.707L5.575 51.85zm107.369 5.284l-16.599 16.6-.707-.708 16.246-16.245L96.072 40.97l.707-.707 16.165 16.165.354.354-.354.353z" fill="#fff"/><path fill-rule="evenodd" clip-rule="evenodd" d="M5.039 50.973l2.121 2.121 36.162-36.162-2.121-2.121L5.039 50.973zm108.612 6.87l-16.65 16.65-2.122-2.12 15.59-15.591-15.257-15.257 2.121-2.122 16.318 16.318 1.061 1.06-1.061 1.061z" fill="#fff"/><path d="M45.989 44.431L68.616 67.06m0 0l-13.789-.354m13.789.354l-.354-13.789" stroke="#fff" stroke-width="1.5"/></svg>