<svg width="154" height="154" fill="none" xmlns="http://www.w3.org/2000/svg"><g opacity=".6" filter="url(#filter0_f_319_10378)"><path stroke="#0342E7" stroke-width="8" d="M77.334 20.831l55.612 55.612-56.298 56.298L21.036 77.13z"/></g><g filter="url(#filter1_f_319_10378)"><path stroke="#0342E7" stroke-width="4" d="M77.334 20.831l55.612 55.612-56.298 56.298L21.036 77.13z"/></g><g opacity=".9" filter="url(#filter2_f_319_10378)"><path fill-rule="evenodd" clip-rule="evenodd" d="M77.348 20.8l36.069 36.068-.707.707L76.995 21.86 66.13 32.727l-.708-.707 11.22-11.22.353-.353.353.354zm-55.15 54.442l-1.185 1.186-.353.353.353.354 55.628 55.628.354.354.353-.354 35.635-35.634-.707-.708-35.281 35.281-54.921-54.92.832-.833-.707-.707zm3.393-3.392l.707.707 36.44-36.44-.707-.706-36.44 36.44zm107.385 5.285l-16.601 16.602-.707-.707 16.248-16.249-15.814-15.814.707-.707 16.167 16.168.354.353-.354.354z" fill="#fff"/></g><g opacity=".9" filter="url(#filter3_f_319_10378)"><path fill-rule="evenodd" clip-rule="evenodd" d="M25.055 70.973l2.121 2.121 36.168-36.168-2.122-2.12-36.167 36.167zm108.628 6.87L117.03 94.496l-2.121-2.121 15.592-15.593-15.259-15.26 2.121-2.121 16.32 16.32 1.061 1.061-1.061 1.06z" fill="#fff"/></g><g filter="url(#filter4_f_319_10378)"><path d="M66.012 64.431L88.64 87.06m0 0l-13.789-.354m13.789.354l-.354-13.789" stroke="#0342E7" stroke-width="4"/></g><g filter="url(#filter5_f_319_10378)"><path d="M66.012 64.431L88.64 87.06m0 0l-13.789-.354m13.789.354l-.354-13.789" stroke="#0342E7" stroke-width="3"/></g><path opacity=".6" d="M66.012 64.431L88.64 87.06m0 0l-13.789-.354m13.789.354l-.354-13.789" stroke="#fff" stroke-width="1.5"/><defs><filter id="filter0_f_319_10378" x=".379" y=".175" width="153.224" height="153.224" filterUnits="userSpaceOnUse" color-interpolation-filters="sRGB"><feFlood flood-opacity="0" result="BackgroundImageFix"/><feBlend in="SourceGraphic" in2="BackgroundImageFix" result="shape"/><feGaussianBlur stdDeviation="7.5" result="effect1_foregroundBlur_319_10378"/></filter><filter id="filter1_f_319_10378" x="12.207" y="12.003" width="129.567" height="129.567" filterUnits="userSpaceOnUse" color-interpolation-filters="sRGB"><feFlood flood-opacity="0" result="BackgroundImageFix"/><feBlend in="SourceGraphic" in2="BackgroundImageFix" result="shape"/><feGaussianBlur stdDeviation="3" result="effect1_foregroundBlur_319_10378"/></filter><filter id="filter2_f_319_10378" x="19.66" y="19.446" width="114.67" height="114.67" filterUnits="userSpaceOnUse" color-interpolation-filters="sRGB"><feFlood flood-opacity="0" result="BackgroundImageFix"/><feBlend in="SourceGraphic" in2="BackgroundImageFix" result="shape"/><feGaussianBlur stdDeviation=".5" result="effect1_foregroundBlur_319_10378"/></filter><filter id="filter3_f_319_10378" x="23.055" y="32.805" width="113.689" height="63.691" filterUnits="userSpaceOnUse" color-interpolation-filters="sRGB"><feFlood flood-opacity="0" result="BackgroundImageFix"/><feBlend in="SourceGraphic" in2="BackgroundImageFix" result="shape"/><feGaussianBlur stdDeviation="1" result="effect1_foregroundBlur_319_10378"/></filter><filter id="filter4_f_319_10378" x="49.598" y="48.017" width="56.095" height="56.095" filterUnits="userSpaceOnUse" color-interpolation-filters="sRGB"><feFlood flood-opacity="0" result="BackgroundImageFix"/><feBlend in="SourceGraphic" in2="BackgroundImageFix" result="shape"/><feGaussianBlur stdDeviation="7.5" result="effect1_foregroundBlur_319_10378"/></filter><filter id="filter5_f_319_10378" x="59.952" y="58.371" width="35.228" height="35.228" filterUnits="userSpaceOnUse" color-interpolation-filters="sRGB"><feFlood flood-opacity="0" result="BackgroundImageFix"/><feBlend in="SourceGraphic" in2="BackgroundImageFix" result="shape"/><feGaussianBlur stdDeviation="2.5" result="effect1_foregroundBlur_319_10378"/></filter></defs></svg>