<svg width="147" height="154" fill="none" xmlns="http://www.w3.org/2000/svg"><g opacity=".6" filter="url(#filter0_f_321_10920)"><path stroke="#CB24FF" stroke-width="8" d="M77.357 20.798l55.646 55.646-56.333 56.332L21.025 77.13z"/></g><g filter="url(#filter1_f_321_10920)"><path stroke="#CB24FF" stroke-width="4" d="M77.357 20.798l55.646 55.646-56.333 56.332L21.025 77.13z"/></g><g opacity=".9" filter="url(#filter2_f_321_10920)"><path fill-rule="evenodd" clip-rule="evenodd" d="M77.371 20.767l36.091 36.09-.707.708-35.737-35.737L66.145 32.7l-.707-.708 11.226-11.225.354-.354.353.354zM22.188 75.243l-1.186 1.186-.354.353.354.354 55.662 55.662.354.354.353-.354 35.656-35.656-.707-.707-35.302 35.302-54.955-54.954.832-.833-.707-.707zm3.394-3.394l.707.707 36.463-36.462-.708-.708-36.462 36.462zm107.451 5.287l-16.612 16.612-.707-.707 16.259-16.258-15.824-15.824.707-.708 16.177 16.178.354.353-.354.354z" fill="#fff"/></g><g opacity=".9" filter="url(#filter3_f_321_10920)"><path fill-rule="evenodd" clip-rule="evenodd" d="M25.047 70.97l2.12 2.122 36.19-36.19-2.12-2.121-36.19 36.19zm108.693 6.874l-16.663 16.663-2.122-2.12 15.603-15.604-15.27-15.27 2.122-2.121 16.33 16.33 1.061 1.061-1.061 1.06z" fill="#fff"/></g><g filter="url(#filter4_f_321_10920)"><path d="M66.036 64.431L88.664 87.06m0 0l-13.789-.354m13.789.354l-.354-13.79" stroke="#CB24FF" stroke-width="4"/></g><g filter="url(#filter5_f_321_10920)"><path d="M66.036 64.431L88.664 87.06m0 0l-13.789-.354m13.789.354l-.354-13.79" stroke="#CB24FF" stroke-width="3"/></g><path opacity=".6" d="M66.036 64.431L88.664 87.06m0 0l-13.789-.354m13.789.354l-.354-13.79" stroke="#fff" stroke-width="1.5"/><defs><filter id="filter0_f_321_10920" x=".368" y=".141" width="153.292" height="153.292" filterUnits="userSpaceOnUse" color-interpolation-filters="sRGB"><feFlood flood-opacity="0" result="BackgroundImageFix"/><feBlend in="SourceGraphic" in2="BackgroundImageFix" result="shape"/><feGaussianBlur stdDeviation="7.5" result="effect1_foregroundBlur_321_10920"/></filter><filter id="filter1_f_321_10920" x="12.196" y="11.97" width="129.635" height="129.635" filterUnits="userSpaceOnUse" color-interpolation-filters="sRGB"><feFlood flood-opacity="0" result="BackgroundImageFix"/><feBlend in="SourceGraphic" in2="BackgroundImageFix" result="shape"/><feGaussianBlur stdDeviation="3" result="effect1_foregroundBlur_321_10920"/></filter><filter id="filter2_f_321_10920" x="19.648" y="19.413" width="114.738" height="114.738" filterUnits="userSpaceOnUse" color-interpolation-filters="sRGB"><feFlood flood-opacity="0" result="BackgroundImageFix"/><feBlend in="SourceGraphic" in2="BackgroundImageFix" result="shape"/><feGaussianBlur stdDeviation=".5" result="effect1_foregroundBlur_321_10920"/></filter><filter id="filter3_f_321_10920" x="23.047" y="32.781" width="113.754" height="63.727" filterUnits="userSpaceOnUse" color-interpolation-filters="sRGB"><feFlood flood-opacity="0" result="BackgroundImageFix"/><feBlend in="SourceGraphic" in2="BackgroundImageFix" result="shape"/><feGaussianBlur stdDeviation="1" result="effect1_foregroundBlur_321_10920"/></filter><filter id="filter4_f_321_10920" x="49.622" y="48.017" width="56.095" height="56.095" filterUnits="userSpaceOnUse" color-interpolation-filters="sRGB"><feFlood flood-opacity="0" result="BackgroundImageFix"/><feBlend in="SourceGraphic" in2="BackgroundImageFix" result="shape"/><feGaussianBlur stdDeviation="7.5" result="effect1_foregroundBlur_321_10920"/></filter><filter id="filter5_f_321_10920" x="59.975" y="58.371" width="35.228" height="35.228" filterUnits="userSpaceOnUse" color-interpolation-filters="sRGB"><feFlood flood-opacity="0" result="BackgroundImageFix"/><feBlend in="SourceGraphic" in2="BackgroundImageFix" result="shape"/><feGaussianBlur stdDeviation="2.5" result="effect1_foregroundBlur_321_10920"/></filter></defs></svg>