<svg width="85" height="85" fill="none" xmlns="http://www.w3.org/2000/svg"><path fill-rule="evenodd" clip-rule="evenodd" d="M2.476 1.982h53.357v1H2.976v19.262h-1V1.982h.5zm-.5 79.548v2.476H84V30.149h-1v52.857H2.976V81.53h-1zm0-4.94h1V27.184h-1v49.404zM84 2.481v22.726h-1V2.982H60.774v-1H84v.5z" fill="#fff"/><path opacity=".9" fill-rule="evenodd" clip-rule="evenodd" d="M.976 76.59h3V27.184h-3v49.404zM85 2.481v22.726h-3V3.982H60.774v-3H85v1.5z" fill="#fff"/><path d="M26.488 42h32m0 0l-10 9.5m10-9.5l-10-9.5" stroke="#fff" stroke-width="1.5"/></svg>