<svg width="120" height="120" fill="none" xmlns="http://www.w3.org/2000/svg"><g opacity=".6" filter="url(#filter0_f_321_10958)"><path stroke="#CB24FF" stroke-width="8" d="M19.536 19h81v82h-81z"/></g><g filter="url(#filter1_f_321_10958)"><path stroke="#CB24FF" stroke-width="4" d="M19.536 19h81v82h-81z"/></g><g opacity=".9" filter="url(#filter2_f_321_10958)"><path fill-rule="evenodd" clip-rule="evenodd" d="M19.524 18.982H72.88v1H20.024v19.262h-1V18.982h.5zm-.5 79.548v2.476h82.024V47.149h-1v52.857H20.024V98.53h-1zm0-4.94h1V44.184h-1v49.404zm82.024-74.108v22.726h-1V19.982H77.821v-1h23.227v.5z" fill="#fff"/></g><g opacity=".9" filter="url(#filter3_f_321_10958)"><path fill-rule="evenodd" clip-rule="evenodd" d="M18.024 93.59h3V44.184h-3v49.404zm84.024-74.108v22.726h-3V20.982H77.82v-3h24.227v1.5z" fill="#fff"/></g><g filter="url(#filter4_f_321_10958)"><path d="M43.536 59h32m0 0l-10 9.5m10-9.5l-10-9.5" stroke="#CB24FF" stroke-width="4"/></g><g filter="url(#filter5_f_321_10958)"><path d="M43.536 59h32m0 0l-10 9.5m10-9.5l-10-9.5" stroke="#CB24FF" stroke-width="3"/></g><path opacity=".6" d="M43.536 59h32m0 0l-10 9.5m10-9.5l-10-9.5" stroke="#fff" stroke-width="1.5"/><defs><filter id="filter0_f_321_10958" x=".536" y="0" width="119" height="120" filterUnits="userSpaceOnUse" color-interpolation-filters="sRGB"><feFlood flood-opacity="0" result="BackgroundImageFix"/><feBlend in="SourceGraphic" in2="BackgroundImageFix" result="shape"/><feGaussianBlur stdDeviation="7.5" result="effect1_foregroundBlur_321_10958"/></filter><filter id="filter1_f_321_10958" x="11.536" y="11" width="97" height="98" filterUnits="userSpaceOnUse" color-interpolation-filters="sRGB"><feFlood flood-opacity="0" result="BackgroundImageFix"/><feBlend in="SourceGraphic" in2="BackgroundImageFix" result="shape"/><feGaussianBlur stdDeviation="3" result="effect1_foregroundBlur_321_10958"/></filter><filter id="filter2_f_321_10958" x="18.024" y="17.982" width="84.024" height="84.024" filterUnits="userSpaceOnUse" color-interpolation-filters="sRGB"><feFlood flood-opacity="0" result="BackgroundImageFix"/><feBlend in="SourceGraphic" in2="BackgroundImageFix" result="shape"/><feGaussianBlur stdDeviation=".5" result="effect1_foregroundBlur_321_10958"/></filter><filter id="filter3_f_321_10958" x="16.024" y="15.982" width="88.024" height="79.607" filterUnits="userSpaceOnUse" color-interpolation-filters="sRGB"><feFlood flood-opacity="0" result="BackgroundImageFix"/><feBlend in="SourceGraphic" in2="BackgroundImageFix" result="shape"/><feGaussianBlur stdDeviation="1" result="effect1_foregroundBlur_321_10958"/></filter><filter id="filter4_f_321_10958" x="28.536" y="33.05" width="64.904" height="51.9" filterUnits="userSpaceOnUse" color-interpolation-filters="sRGB"><feFlood flood-opacity="0" result="BackgroundImageFix"/><feBlend in="SourceGraphic" in2="BackgroundImageFix" result="shape"/><feGaussianBlur stdDeviation="7.5" result="effect1_foregroundBlur_321_10958"/></filter><filter id="filter5_f_321_10958" x="38.536" y="43.413" width="44.178" height="31.175" filterUnits="userSpaceOnUse" color-interpolation-filters="sRGB"><feFlood flood-opacity="0" result="BackgroundImageFix"/><feBlend in="SourceGraphic" in2="BackgroundImageFix" result="shape"/><feGaussianBlur stdDeviation="2.5" result="effect1_foregroundBlur_321_10958"/></filter></defs></svg>