<svg width="141" height="127" fill="none" xmlns="http://www.w3.org/2000/svg"><g opacity=".6" filter="url(#filter0_f_319_10768)"><path d="M120.635 19.5h-98l49 84 49-84z" stroke="#CB24FF" stroke-width="8"/></g><g filter="url(#filter1_f_319_10768)"><path d="M120.635 19.5h-98l49 84 49-84z" stroke="#CB24FF" stroke-width="4"/></g><g opacity=".9" filter="url(#filter2_f_319_10768)"><path fill-rule="evenodd" clip-rule="evenodd" d="M22.635 19h28v1h-27.13l12.543 21.5H34.89L22.203 19.752 21.765 19h.87zm15.171 27.5h1.158l28.584 49h-.913v.42L37.806 46.5zm33.83 57.992l.431-.74L97.881 59.5h-1.158l-25.088 43.008v1.984zM100.797 54.5l20.269-34.748.439-.752h-65.87v1h64.13L99.64 54.5h1.158z" fill="#fff"/></g><g opacity=".9" filter="url(#filter3_f_319_10768)"><path fill-rule="evenodd" clip-rule="evenodd" d="M50.635 18H20.024l1.316 2.256L34.316 42.5h3.473L25.247 21h25.388v-3zm44.93 41.5h3.474L72.93 104.256l-1.296 2.221v-5.954L95.565 59.5z" fill="#fff"/></g><g filter="url(#filter4_f_319_10768)"><path d="M72.135 64.5v-28m0 0l8.5 8.75m-8.5-8.75l-8.5 8.75" stroke="#CB24FF" stroke-width="4"/></g><g filter="url(#filter5_f_319_10768)"><path d="M72.135 64.5v-28m0 0l8.5 8.75m-8.5-8.75l-8.5 8.75" stroke="#CB24FF" stroke-width="3"/></g><path opacity=".6" d="M72.135 64.5v-28m0 0l8.5 8.75m-8.5-8.75l-8.5 8.75" stroke="#fff" stroke-width="1.5"/><defs><filter id="filter0_f_319_10768" x=".671" y=".5" width="141.928" height="125.938" filterUnits="userSpaceOnUse" color-interpolation-filters="sRGB"><feFlood flood-opacity="0" result="BackgroundImageFix"/><feBlend in="SourceGraphic" in2="BackgroundImageFix" result="shape"/><feGaussianBlur stdDeviation="7.5" result="effect1_foregroundBlur_319_10768"/></filter><filter id="filter1_f_319_10768" x="13.153" y="11.5" width="116.964" height="101.969" filterUnits="userSpaceOnUse" color-interpolation-filters="sRGB"><feFlood flood-opacity="0" result="BackgroundImageFix"/><feBlend in="SourceGraphic" in2="BackgroundImageFix" result="shape"/><feGaussianBlur stdDeviation="3" result="effect1_foregroundBlur_319_10768"/></filter><filter id="filter2_f_319_10768" x="20.765" y="18" width="101.741" height="87.492" filterUnits="userSpaceOnUse" color-interpolation-filters="sRGB"><feFlood flood-opacity="0" result="BackgroundImageFix"/><feBlend in="SourceGraphic" in2="BackgroundImageFix" result="shape"/><feGaussianBlur stdDeviation=".5" result="effect1_foregroundBlur_319_10768"/></filter><filter id="filter3_f_319_10768" x="18.024" y="16" width="83.015" height="92.477" filterUnits="userSpaceOnUse" color-interpolation-filters="sRGB"><feFlood flood-opacity="0" result="BackgroundImageFix"/><feBlend in="SourceGraphic" in2="BackgroundImageFix" result="shape"/><feGaussianBlur stdDeviation="1" result="effect1_foregroundBlur_319_10768"/></filter><filter id="filter4_f_319_10768" x="47.201" y="18.63" width="49.869" height="60.87" filterUnits="userSpaceOnUse" color-interpolation-filters="sRGB"><feFlood flood-opacity="0" result="BackgroundImageFix"/><feBlend in="SourceGraphic" in2="BackgroundImageFix" result="shape"/><feGaussianBlur stdDeviation="7.5" result="effect1_foregroundBlur_319_10768"/></filter><filter id="filter5_f_319_10768" x="57.559" y="29.347" width="29.152" height="40.153" filterUnits="userSpaceOnUse" color-interpolation-filters="sRGB"><feFlood flood-opacity="0" result="BackgroundImageFix"/><feBlend in="SourceGraphic" in2="BackgroundImageFix" result="shape"/><feGaussianBlur stdDeviation="2.5" result="effect1_foregroundBlur_319_10768"/></filter></defs></svg>