<svg width="127" height="143" fill="none" xmlns="http://www.w3.org/2000/svg"><g opacity=".6" filter="url(#filter0_f_319_10654)"><path d="M19.5 22.87v98.001l84-49-84-49z" stroke="#0342E7" stroke-width="8"/></g><g filter="url(#filter1_f_319_10654)"><path d="M19.5 22.87v98.001l84-49-84-49z" stroke="#0342E7" stroke-width="4"/></g><g opacity=".9" filter="url(#filter2_f_319_10654)"><path fill-rule="evenodd" clip-rule="evenodd" d="M19 120.871v-28h1V120l21.5-12.541v1.157l-21.748 12.687-.752.438v-.87zM46.5 105.7v-1.158l49-28.584v.913h.42L46.5 105.7zm57.992-33.83l-.74-.431L59.5 45.625v1.158l43.008 25.088h1.984zM54.5 42.709l-34.748-20.27L19 22v65.87h1V23.742l34.5 20.125V42.71z" fill="#fff"/></g><g opacity=".9" filter="url(#filter3_f_319_10654)"><path fill-rule="evenodd" clip-rule="evenodd" d="M18 92.87v30.613l2.256-1.316L42.5 109.191v-3.474L21 118.259V92.871h-3zm41.5-44.93v-3.473l44.756 26.108 2.221 1.296h-5.954L59.5 47.94z" fill="#fff"/></g><g filter="url(#filter4_f_319_10654)"><path d="M36.5 72.37h28m0 0l-8.75-8.5m8.75 8.5l-8.75 8.5" stroke="#0342E7" stroke-width="4"/></g><g filter="url(#filter5_f_319_10654)"><path d="M36.5 72.37h28m0 0l-8.75-8.5m8.75 8.5l-8.75 8.5" stroke="#0342E7" stroke-width="3"/></g><path opacity=".6" d="M36.5 72.37h28m0 0l-8.75-8.5m8.75 8.5l-8.75 8.5" stroke="#fff" stroke-width="1.5"/><defs><filter id="filter0_f_319_10654" x=".5" y=".906" width="125.939" height="141.928" filterUnits="userSpaceOnUse" color-interpolation-filters="sRGB"><feFlood flood-opacity="0" result="BackgroundImageFix"/><feBlend in="SourceGraphic" in2="BackgroundImageFix" result="shape"/><feGaussianBlur stdDeviation="7.5" result="effect1_foregroundBlur_319_10654"/></filter><filter id="filter1_f_319_10654" x="11.5" y="13.388" width="101.969" height="116.964" filterUnits="userSpaceOnUse" color-interpolation-filters="sRGB"><feFlood flood-opacity="0" result="BackgroundImageFix"/><feBlend in="SourceGraphic" in2="BackgroundImageFix" result="shape"/><feGaussianBlur stdDeviation="3" result="effect1_foregroundBlur_319_10654"/></filter><filter id="filter2_f_319_10654" x="18" y="21" width="87.492" height="101.741" filterUnits="userSpaceOnUse" color-interpolation-filters="sRGB"><feFlood flood-opacity="0" result="BackgroundImageFix"/><feBlend in="SourceGraphic" in2="BackgroundImageFix" result="shape"/><feGaussianBlur stdDeviation=".5" result="effect1_foregroundBlur_319_10654"/></filter><filter id="filter3_f_319_10654" x="16" y="42.467" width="92.477" height="83.015" filterUnits="userSpaceOnUse" color-interpolation-filters="sRGB"><feFlood flood-opacity="0" result="BackgroundImageFix"/><feBlend in="SourceGraphic" in2="BackgroundImageFix" result="shape"/><feGaussianBlur stdDeviation="1" result="effect1_foregroundBlur_319_10654"/></filter><filter id="filter4_f_319_10654" x="21.5" y="47.436" width="60.87" height="49.869" filterUnits="userSpaceOnUse" color-interpolation-filters="sRGB"><feFlood flood-opacity="0" result="BackgroundImageFix"/><feBlend in="SourceGraphic" in2="BackgroundImageFix" result="shape"/><feGaussianBlur stdDeviation="7.5" result="effect1_foregroundBlur_319_10654"/></filter><filter id="filter5_f_319_10654" x="31.5" y="57.795" width="40.153" height="29.152" filterUnits="userSpaceOnUse" color-interpolation-filters="sRGB"><feFlood flood-opacity="0" result="BackgroundImageFix"/><feBlend in="SourceGraphic" in2="BackgroundImageFix" result="shape"/><feGaussianBlur stdDeviation="2.5" result="effect1_foregroundBlur_319_10654"/></filter></defs></svg>