<svg width="90" height="102" fill="none" xmlns="http://www.w3.org/2000/svg"><path fill-rule="evenodd" clip-rule="evenodd" d="M1.976 98.87v-28h1V98l21.5-12.541v1.157L2.728 99.303l-.752.438v-.87zm27.5-15.17v-1.158l49-28.584v.913h.421l-49.42 28.828zM87.47 49.87l-.74-.431-44.253-25.814v1.158L85.484 49.87h1.985zM37.476 20.71L2.728.439 1.976 0v65.87h1V1.742l34.5 20.125V20.71z" fill="#fff"/><path fill-rule="evenodd" clip-rule="evenodd" d="M.976 70.87v30.613l2.256-1.316 22.244-12.975v-3.474L3.976 96.26V70.871h-3zm41.5-44.93v-3.473l44.756 26.108 2.221 1.296H83.5L42.476 25.94z" fill="#fff"/><path d="M19.476 50.37h28m0 0l-8.75-8.5m8.75 8.5l-8.75 8.5" stroke="#fff" stroke-width="1.5"/></svg>