<svg width="103" height="89" fill="none" xmlns="http://www.w3.org/2000/svg"><path fill-rule="evenodd" clip-rule="evenodd" d="M3.588 1h28v1H4.458L17 23.5h-1.158L3.156 1.752 2.717 1h.87zm15.17 27.5h1.159l28.583 49h-.912v.42L18.758 28.5zm33.83 57.992l.432-.74L78.833 41.5h-1.157L52.588 84.508v1.984zM81.75 36.5l20.27-34.748.438-.752h-65.87v1h64.129L80.592 36.5h1.158z" fill="#fff"/><path fill-rule="evenodd" clip-rule="evenodd" d="M31.588 0H.976l1.316 2.256L15.268 24.5h3.473L6.199 3h25.389V0zm44.93 41.5h3.473L53.883 86.256l-1.295 2.221v-5.954L76.518 41.5z" fill="#fff"/><path d="M53.088 46.5v-28m0 0l8.5 8.75m-8.5-8.75l-8.5 8.75" stroke="#fff" stroke-width="1.5"/></svg>