<svg width="127" height="143" fill="none" xmlns="http://www.w3.org/2000/svg"><g opacity=".6" filter="url(#filter0_f_321_10847)"><path d="M19.524 22.87v98.001l84-49-84-49z" stroke="#CB24FF" stroke-width="8"/></g><g filter="url(#filter1_f_321_10847)"><path d="M19.524 22.87v98.001l84-49-84-49z" stroke="#CB24FF" stroke-width="4"/></g><g opacity=".9" filter="url(#filter2_f_321_10847)"><path fill-rule="evenodd" clip-rule="evenodd" d="M19.024 120.871v-28h1V120l21.5-12.541v1.157l-21.748 12.687-.752.438v-.87zm27.5-15.171v-1.158l49-28.584v.913h.42L46.525 105.7zm57.992-33.83l-.74-.431-44.252-25.814v1.158l43.008 25.088h1.984zM54.524 42.709l-34.748-20.27-.752-.438v65.87h1V23.742l34.5 20.125V42.71z" fill="#fff"/></g><g opacity=".9" filter="url(#filter3_f_321_10847)"><path fill-rule="evenodd" clip-rule="evenodd" d="M18.024 92.87v30.613l2.256-1.316 22.244-12.975v-3.474l-21.5 12.542V92.871h-3zm41.5-44.93v-3.473l44.756 26.108 2.221 1.296h-5.954L59.524 47.94z" fill="#fff"/></g><g filter="url(#filter4_f_321_10847)"><path d="M36.524 72.37h28m0 0l-8.75-8.5m8.75 8.5l-8.75 8.5" stroke="#CB24FF" stroke-width="4"/></g><g filter="url(#filter5_f_321_10847)"><path d="M36.524 72.37h28m0 0l-8.75-8.5m8.75 8.5l-8.75 8.5" stroke="#CB24FF" stroke-width="3"/></g><path opacity=".6" d="M36.524 72.37h28m0 0l-8.75-8.5m8.75 8.5l-8.75 8.5" stroke="#fff" stroke-width="1.5"/><defs><filter id="filter0_f_321_10847" x=".524" y=".906" width="125.939" height="141.928" filterUnits="userSpaceOnUse" color-interpolation-filters="sRGB"><feFlood flood-opacity="0" result="BackgroundImageFix"/><feBlend in="SourceGraphic" in2="BackgroundImageFix" result="shape"/><feGaussianBlur stdDeviation="7.5" result="effect1_foregroundBlur_321_10847"/></filter><filter id="filter1_f_321_10847" x="11.524" y="13.388" width="101.969" height="116.964" filterUnits="userSpaceOnUse" color-interpolation-filters="sRGB"><feFlood flood-opacity="0" result="BackgroundImageFix"/><feBlend in="SourceGraphic" in2="BackgroundImageFix" result="shape"/><feGaussianBlur stdDeviation="3" result="effect1_foregroundBlur_321_10847"/></filter><filter id="filter2_f_321_10847" x="18.024" y="21" width="87.492" height="101.741" filterUnits="userSpaceOnUse" color-interpolation-filters="sRGB"><feFlood flood-opacity="0" result="BackgroundImageFix"/><feBlend in="SourceGraphic" in2="BackgroundImageFix" result="shape"/><feGaussianBlur stdDeviation=".5" result="effect1_foregroundBlur_321_10847"/></filter><filter id="filter3_f_321_10847" x="16.024" y="42.467" width="92.477" height="83.015" filterUnits="userSpaceOnUse" color-interpolation-filters="sRGB"><feFlood flood-opacity="0" result="BackgroundImageFix"/><feBlend in="SourceGraphic" in2="BackgroundImageFix" result="shape"/><feGaussianBlur stdDeviation="1" result="effect1_foregroundBlur_321_10847"/></filter><filter id="filter4_f_321_10847" x="21.524" y="47.436" width="60.87" height="49.869" filterUnits="userSpaceOnUse" color-interpolation-filters="sRGB"><feFlood flood-opacity="0" result="BackgroundImageFix"/><feBlend in="SourceGraphic" in2="BackgroundImageFix" result="shape"/><feGaussianBlur stdDeviation="7.5" result="effect1_foregroundBlur_321_10847"/></filter><filter id="filter5_f_321_10847" x="31.524" y="57.795" width="40.153" height="29.152" filterUnits="userSpaceOnUse" color-interpolation-filters="sRGB"><feFlood flood-opacity="0" result="BackgroundImageFix"/><feBlend in="SourceGraphic" in2="BackgroundImageFix" result="shape"/><feGaussianBlur stdDeviation="2.5" result="effect1_foregroundBlur_321_10847"/></filter></defs></svg>